<?xml version="1.0" encoding="UTF-8"?>
<svg id="Layer_1" data-name="Layer 1" xmlns="http://www.w3.org/2000/svg" viewBox="0 0 1363.92 841.89">
  <defs>
    <style>
      .cls-1 {
        fill: #f09322;
      }

      .cls-2 {
        fill: #e22126;
      }

      .cls-3 {
        fill: #f5b237;
      }

      .cls-4 {
        fill: #e5352c;
      }

      .cls-5 {
        fill: #3a2f7f;
      }

      .cls-6 {
        fill: #a7c265;
      }

      .cls-7 {
        fill: #0b9548;
      }

      .cls-8 {
        fill: #12a19f;
      }

      .cls-9 {
        fill: #dcda22;
      }

      .cls-10 {
        fill: #41a849;
      }

      .cls-11 {
        fill: #98c13e;
      }

      .cls-12 {
        fill: #4188c2;
      }

      .cls-13 {
        fill: #35aadd;
      }

      .cls-14 {
        fill: #f9e81a;
      }

      .cls-15 {
        fill: #ba3b31;
      }
    </style>
  </defs>
  <g>
    <g>
      <path class="cls-6" d="M519.59,539.5c-.18-.01-.37.02-.55,0v-.55l.55.55Z"/>
      <g>
        <path class="cls-6" d="M630.84,541.16h-52.58c17.16.06,35.56.8,52.58,0Z"/>
        <path class="cls-6" d="M533.98,541.16c-1.31.97-3.14.6-4.64.48-.7-.06-4.16-.13-3.66-1.59,2.87-.04,5.95,1.01,8.3,1.11Z"/>
        <path class="cls-6" d="M524.02,540.05c-.95.05-4.29,1.89-3.87-.55,1.22.06,3.11-.44,3.87.55Z"/>
        <g>
          <path class="cls-5" d="M651.87,453.15c2.51,20.5,5.92,40.26,19.39,56.72l4.97,5.83c-8.82,6.78-14.01,12.28-24.35,18.27-.18-16.69.23-33.42.02-50.11-.08-6.1-.58-12.32-.58-18.52,0-2.39-.02-4.8,0-7.2,0-1.56-.45-3.89.55-4.98Z"/>
          <path class="cls-15" d="M704.45,385.63c.12,21.95-1,44.33-1.11,66.42-.01,2.21.01,4.43,0,6.64-.04,7.37.03,14.77,0,22.14v-115.68c.16.39.49.52.58,1.33.56,4.93.5,14.01.53,19.15Z"/>
          <path class="cls-15" d="M652.42,406.66v43.72c-.97.13-.53-1.26-.55-1.93-.48-11.67,0-23.96,0-35.71,0-15.67,0-31.37,0-47.05l.55,40.96Z"/>
          <g>
            <path class="cls-7" d="M517.93,483.59c-.49-3.84.58-13.25.58-17.96l-.05-191c-.34-3.33,2.98-4.72,5.84-4.73,32.59-.11,68.92-1.73,101.31.03,7.8.42,12.49,1.7,19.21,4.61,2.27.98,4.67,1.93,7.06,2.61.01.29.54.82.55,1.11.04.92-.02,1.85,0,2.77v48.15c-.06,1.86.53,4.27-1.11,5.53-.34-1.36-2.68-2.26-3.87-2.77h-44.28c-.16.02-2.93.96-3.02,1.09-.63.86-.78,2.52-.87,3.6-2.29,37.18,3.36,77.23.57,114.03-2.57,33.86-31.36,39.48-60.04,37.92-7.34-.4-14.24-2.11-21.31-3.87-.03-.29-.51-.77-.55-1.11Z"/>
            <path class="cls-14" d="M647.44,331.94c1.2.5,3.53,1.41,3.87,2.77.38,1.49-.16,4.56-.02,6.39,1.68,22.88-.07,48.32.02,71.65.05,12.89-.99,27.86.55,40.4-1,1.09-.54,3.42-.55,4.98-2.64,14.34-4.92,27.86-12.08,40.78-2.42,4.36-5.39,8.11-8.41,12.06-.63.82-1.33,1.22-1.09,2.51-.2.17-.36.38-.55.55-7.02,6.17-15.16,12.14-23.8,16.05-4.85,2.19-9.68,3.6-14.92,5.28-.94.3-3.71.59-3.34,1.92-.48.04-1.21.07-1.66,0-.35-.05-1.31-1.62-1.11.55-.36.02-.74.01-1.11,0-7.79-.29-17.49,2.78-25.46,3.32-7.17.48-16.55.29-23.8,0-2.35-.1-5.43-1.15-8.3-1.11-.55,0-1.11-.03-1.66,0-.77-1-2.65-.5-3.87-.55-.18,0-.37.01-.55,0l-.55-.55c-.16-1.53-.55-3.79-.55-5.26v-43.17c0-2.16.19-3.59,0-5.81,7.08,1.76,13.98,3.47,21.31,3.87,28.67,1.56,57.47-4.06,60.04-37.92,2.79-36.81-2.86-76.85-.57-114.03.09-1.08.24-2.74.87-3.6.1-.13,2.86-1.07,3.02-1.09,13.5-1.69,30.41,1.26,44.28,0Z"/>
            <path class="cls-13" d="M651.87,533.96c-.34.2-.49.52-.55.55-6.86,3.86-12.46,6.26-20.48,6.64-17.01.8-35.42.06-52.58,0-.37,0-.74,0-1.11,0-.74,0-1.48,0-2.21,0,.53-.86,1.51-.98,2.41-1.19,6.46-1.54,13.33-1.88,19.18-5.45.16-.06.39.06.55,0l10.49-3.07c6.49-5.32,14.6-9.29,20.23-15.19.65-.68,1.37-1.14,1.37-2.22.19-.17.36-.38.55-.55,9.57-8.37,15.94-23.85,19.1-35.97,1.05-4.01,1.54-8.16,2.48-12.18,0,6.2.5,12.42.58,18.52.21,16.7-.2,33.42-.02,50.11Z"/>
            <path class="cls-6" d="M583.24,537.84c-6.08,1.67-12.52,2.72-18.81,2.77-.13.97,1.26.52,1.93.55,2.85.12,5.74-.01,8.58,0,.74,0,1.48,0,2.21,0-.58.92-2.1.55-3.04.56-5.3.07-11.2.4-16.33-.56,7.97-.54,17.67-3.61,25.46-3.32Z"/>
            <path class="cls-10" d="M647.44,331.94c-13.86,1.26-30.78-1.69-44.28,0h44.28Z"/>
            <path class="cls-8" d="M651.32,465.33c-.95,4.02-1.44,8.17-2.48,12.18-3.16,12.12-9.53,27.6-19.1,35.97-.24-1.29.46-1.69,1.09-2.51,3.02-3.95,6-7.7,8.41-12.06,7.16-12.92,9.44-26.44,12.08-40.78-.02,2.39,0,4.8,0,7.2Z"/>
            <path class="cls-8" d="M629.18,514.04c0,1.08-.73,1.54-1.37,2.22-5.63,5.91-13.74,9.87-20.23,15.19l-10.49,3.07c2.54-.91,6.36-2.59,8.3-4.43,8.64-3.91,16.78-9.88,23.8-16.05Z"/>
            <path class="cls-8" d="M596.52,534.51c-5.85,3.57-12.72,3.91-19.18,5.45-.89.21-1.87.33-2.41,1.19-2.84-.01-5.74.12-8.58,0-.67-.03-2.06.42-1.93-.55,6.3-.05,12.74-1.1,18.81-2.77.36.01.75.02,1.11,0,.48-.03.94-.02,1.11-.55.45.07,1.19.04,1.66,0,1.89-.18,7.31-2.04,9.41-2.77Z"/>
            <path class="cls-6" d="M605.38,530.09c-1.94,1.84-5.76,3.52-8.3,4.43-.16.06-.39-.06-.55,0-2.09.73-7.52,2.59-9.41,2.77-.37-1.32,2.4-1.62,3.34-1.92,5.24-1.68,10.07-3.08,14.92-5.28Z"/>
            <path class="cls-6" d="M585.45,537.28c-.17.53-.63.52-1.11.55-.2-2.18.76-.61,1.11-.55Z"/>
            <path class="cls-2" d="M494.55,272.3c.64.56,1.2,6.02,1.28,7.31.91,15.73-.42,31.94-.6,47.6-.37,31.19-.61,62.34-.51,93.58.05,14.12-2.39,37.71,5.04,49.71,1.69,2.73,8.37,9.78,11.25,11.45,1.83,1.06,4.76,1.29,6.43,3.12-.82,2.19-.07,3.85-.01,5.97.39,15.57-.37,31.25-.03,46.79-3.15-.65-6.41-.98-9.52-1.81-6.65-1.79-11.36-4.48-17.47-6.99-1.66-.68-4.1.58-3.16-2.25-.58.62-1.18.47-1.89.26-.96-.29-10.63-6.51-10.97-7.07-.42-.68.02-1.69-.94-2.66-1.51-1.53-4.9-2.23-7.51-5.38-6.32-7.65-11.97-16.58-15.25-26.1-3.81-11.05-3.44-21.88-5.78-32.97l.11-179.2c.44-2.26,2.62-2.47,4.56-2.63,9.9-.83,31.32-1.06,40.99,0,.64.07,3.69.99,3.99,1.26Z"/>
            <path class="cls-15" d="M517.93,483.59c.04.33.53.82.55,1.11.19,2.22,0,3.66,0,5.81v43.17c0,1.47.39,3.73.55,5.26v.55c-43.45-3.72-72.4-38.02-75.29-80.51-.77-59.76,1.09-119.62.05-179.38-.07-4.29-2.19-8.39,4.11-9.67l45.7.26c1.33.67,2.78,1.66,2.77,3.32-.27,46.32.26,92.66,0,138.98-.1,17.99-4.23,43.9,6.39,59.42,3.71,5.43,9.19,9.13,15.17,11.67ZM494.55,272.3c-.31-.27-3.35-1.19-3.99-1.26-9.67-1.07-31.1-.83-40.99,0-1.94.16-4.12.37-4.56,2.63l-.11,179.2c2.33,11.09,1.96,21.92,5.78,32.97,3.29,9.53,8.93,18.45,15.25,26.1,2.61,3.15,6,3.85,7.51,5.38.96.97.52,1.98.94,2.66.34.56,10.01,6.78,10.97,7.07.71.21,1.31.36,1.89-.26-.94,2.83,1.5,1.56,3.16,2.25,6.11,2.51,10.82,5.2,17.47,6.99,3.11.84,6.37,1.17,9.52,1.81-.34-15.54.42-31.22.03-46.79-.05-2.11-.81-3.78.01-5.97-1.66-1.83-4.6-2.06-6.43-3.12-2.87-1.67-9.56-8.72-11.25-11.45-7.43-12-4.99-35.59-5.04-49.71-.1-31.25.14-62.39.51-93.58.18-15.66,1.51-31.88.6-47.6-.07-1.29-.63-6.74-1.28-7.31Z"/>
          </g>
        </g>
        <g>
          <g>
            <path class="cls-11" d="M872.7,277.7l1.95-4.97c.8-1.05,1.97-1.65,3.3-1.69l184.2.03c1.71,2.13,3.27.31,3.72,4.12-.86,13.46,1.11,28.24.01,41.54-.36,4.31-1.15,3.28-4.14,5.28l-69.21-.03-2.92.67c-1.08,1.11-.13,2.82-.13,3.19-.23,53.12.39,106.28,0,159.4-13.37,4.59-39.1,4.54-52.58.55-.27-.08-.78-.99-1.11-1.11,2.1.31,1.11-2.07,1.11-3.04v-156.08c0-.34-1.23-1.89-1.69-2.18-3.59-2.32-18.27-.03-23.22-.86.06-3.33.53-17.27-.52-19.12-1-1.76-3.39-2.32-5.27-2.48-9.98-.85-23.25-.17-33.51.02v-1.66c1.64.79,1.82-3.92,0-3.32,0-5.99-.27-12.32,0-18.27Z"/>
            <path class="cls-7" d="M872.15,300.94c1.2,4.69-2.15,18.81,2.26,21.27,1.04.58,2.87.79,4.09.89,10.11.86,21.43-.82,31.59-.02,1.7.13,1.42-.27,1.36,1.66-.35,26.28.16,52.61.03,78.9-.14,28.9-9.48,68.92,24.33,81.06.32.12.84,1.03,1.11,1.11l.55,54.24c-15.07-2.06-32.61-7.82-45.01-16.7-19.98-14.29-30.13-37.85-32.47-61.9-.82-45.27-.81-90.81-.55-136.16.04-7.19-.03-14.4,0-21.59,2.52-3.93,8.5-2.68,12.73-2.77Z"/>
            <path class="cls-12" d="M989.48,485.25c33.04-11.33,25.02-47.6,24.88-74.97-.13-24.26-.07-48.62.29-72.82.6-1,4.27-1.56,5.52-1.67,10.71-.91,30.25-.86,41,0,2.89.23,6.22.53,5.81,4.15-1.75,38.74,2.25,79.42,0,117.94-2.77,47.41-32.64,76.9-79.17,82.17,2.74-.83,1.1-1.4,1.08-3.57-.18-17.09.46-34.25.58-51.22Z"/>
            <path class="cls-8" d="M989.48,485.25c-.12,16.98-.76,34.14-.58,51.22.02,2.17,1.67,2.74-1.08,3.57-3.2.36-8.47,1.11-11.35,1.11h-29.33c-2.06,0-7.25-.77-9.69-1.11l-.55-54.24c13.48,3.99,39.21,4.03,52.58-.55Z"/>
            <path class="cls-10" d="M912,322.53c-.02,1.13-.55,2.1-.55,2.21.07-1.94.34-1.53-1.36-1.66-10.16-.8-21.49.88-31.59.02-1.21-.1-3.05-.31-4.09-.89-4.4-2.46-1.06-16.58-2.26-21.27.18,0,.37,0,.55,0,10.26-.19,23.53-.87,33.51-.02,1.88.16,4.27.72,5.27,2.48,1.05,1.86.58,15.79.52,19.12Z"/>
            <path class="cls-6" d="M989.48,325.85c0-.37-.95-2.08.13-3.19l2.92-.67,69.21.03c2.99-1.99,3.78-.96,4.14-5.28,1.1-13.3-.87-28.08-.01-41.54-.45-3.81-2.02-1.99-3.72-4.12l-184.2-.03c-1.33.03-2.49.64-3.3,1.69l-1.95,4.97c.22-4.8-.54-7.24,5.24-7.77l186.29.27c2.13.9,2.57,2.29,2.76,4.43,1.28,14.08-1.03,30.05,0,44.33.03,1.5-1.24,2.38-2.26,3.28l-68.91.27c-3.01.26-4.67.71-6.35,3.34Z"/>
            <path class="cls-6" d="M872.7,295.96c1.82-.6,1.64,4.11,0,3.32v-3.32Z"/>
          </g>
          <path class="cls-7" d="M652.42,406.66l.83-2.21c1.66,3.7,4.42,4.36,7.18,6.66,8.86,7.38,15.27,13.09,21.56,22.15,8.82,12.7,13.15,29.61,11.96,45.1-.77,10.09-8.79,31.46-17.18,37.34-.12.09-.44-.09-.55,0l-4.97-5.83c-13.47-16.46-16.87-36.22-19.39-56.72-1.54-12.54-.5-27.51-.55-40.4h.55c0,11.74-.48,24.03,0,35.71.03.67-.42,2.06.55,1.93v-43.72Z"/>
          <g>
            <path class="cls-3" d="M651.87,277.14c-.16-3.58.02-5.54,3.61-7.18l47.73.13,1.79,1.94,93.3,152.85c2.66,3.99,6.86,2.48,9.09-1.07.16,22.4,3.43,45.49-17.75,58.35-2.95,1.79-5.85,2.32-8.85,3.33-1.54.52-3.41,1.99-4.95,1.97-.18,0-1.43-1-2.21-.55-.18-1-1.48-3.52-2.77-3.32-.9-3.62-7.67-13.9-10.06-17.89-15.85-26.46-32.83-52.28-48.37-78.93-2.71-3.57-4.35-3.21-7.99-1.14-.03-5.14.04-14.22-.53-19.15-.09-.81-.42-.94-.58-1.33-.65-1.62-.78-1.95-2.77-2.21-1.51-1.39-10.47.02-11.07-.56,7.6-23.15,2.81-46.95-13-65.32-6.35-7.37-15-15.18-24.08-18.81-.01-.28-.54-.82-.55-1.11Z"/>
            <path class="cls-9" d="M858.86,325.3l.02,132.03c-1.92,31.66-16.22,59.6-45.58,73.42-3.13,1.47-6.96,3.3-10.34,3.77-7.47-12.71-15.6-25.25-23.23-37.93-1.3-2.16-3.66-4.58-4.71-6.93-.61-1.37-.36-1.53.82-2.19,1.54.02,3.41-1.45,4.95-1.97,2.99-1.01,5.9-1.54,8.85-3.33,21.19-12.86,17.92-35.94,17.75-58.35-.24-33.16-.05-66.48,0-99.63,1.2-.89,2.01-1.49,3.58-1.68,13.3-1.57,29.59,1.23,43.21-.01,2.04-.12,3.73,1.07,4.68,2.79Z"/>
            <path class="cls-14" d="M740.42,488.02c.37,0,.74,0,1.11,0,.77.84,1.97,1.02,3.05,1.11,9.35.72,19.8-.11,29.03-1.14.04-.35.08-.74.02-1.08.78-.44,2.03.55,2.21.55-1.18.65-1.43.81-.82,2.19,1.05,2.35,3.41,4.77,4.71,6.93,7.63,12.68,15.76,25.22,23.23,37.93.13.21-.13.89,0,1.11l-11.3,2.26c-21.89,4.81-50.79,5-72.83.24-5.27-1.14-10.49-2.73-15.49-4.71,1.03-13.66-.05-29.76,0-43.73,0-1.47,0-2.95,0-4.43,0-.18,0-.37,0-.55,0-1.29,0-2.58,0-3.87.03-7.37-.04-14.77,0-22.14l5.32,12.12c5.56,9.5,20.84,17.46,31.77,17.22Z"/>
            <path class="cls-10" d="M858.86,273.27c-.92.7-.92,3.18,0,3.87.18,5.88-.11,11.82,0,17.71-.11,2.65-1.44,5.84,0,8.3.12.21.38.38.55.55-.03,7.19.04,14.4,0,21.59h-.55c-.95-1.73-2.64-2.92-4.68-2.79-13.62,1.24-29.91-1.56-43.21.01-1.58.19-2.38.78-3.58,1.68.03-15.44-1.97-33.74-.58-49.01.3-3.29,1.42-4.4,4.7-4.7,13.89-1.27,29.67,1.01,43.76.01,1.81.21,3.26.81,3.58,2.78Z"/>
            <path class="cls-11" d="M859.97,461.45c-2.86,23.88,1.9,51.38-.52,75.03-.17,1.67-1.06,4.86-3.05,4.7l-48.19-.03c-2.71.1-4-3.39-5.25-5.54-.13-.22.13-.89,0-1.11,3.38-.47,7.21-2.29,10.34-3.77,29.36-13.82,43.65-41.76,45.58-73.42l-.02-132.03h.55c-.25,45.35-.27,90.89.55,136.16Z"/>
            <path class="cls-15" d="M703.34,489.68c-.05,13.97,1.03,30.06,0,43.73-.26,3.44-.2,7.6-4.34,8-2.42.23-5.19-.28-7.54-.27-12.36.05-24.73.03-37.09.01-2.88-.94-3.35-3.87-3.06-6.63.07-.04.21-.36.55-.55,10.34-5.98,15.53-11.49,24.35-18.27.12-.09.43.09.55,0,.02,1.03.69,1.59,1.36,2.24,3.95,3.81,15.57,12.39,20.65,13.66.78.2,1.55.21,2.34.15-.15-1.61.48-3.11.58-4.69.49-7.87-1.09-18.11-.05-25.51.65-4.67,1.04-4.66.59-9.96-.09-1.04-.51-2.23,1.1-1.91Z"/>
            <path class="cls-7" d="M858.86,303.16c-1.44-2.47-.11-5.66,0-8.3,0,.07.59.63.6,1.36.04,1.84-.63,4.87-.6,6.94Z"/>
            <path class="cls-7" d="M858.86,277.14c-.92-.7-.92-3.18,0-3.87.18,1.1-.04,2.66,0,3.87Z"/>
            <path class="cls-1" d="M652.42,278.25c9.08,3.63,17.74,11.44,24.08,18.81,15.82,18.36,20.6,42.16,13,65.32.6.57,9.56-.84,11.07.56-14.01,1.24-30.9-1.66-44.57-.01-1.54.19-4.11,1.01-4.14,2.78,0,15.67,0,31.37,0,47.05h-.55c-.1-23.34,1.66-48.77-.02-71.65-.13-1.82.4-4.89.02-6.39,1.64-1.26,1.05-3.67,1.11-5.53.46-15.71.3-32.42,0-48.15-.02-.92.04-1.85,0-2.77Z"/>
            <path class="cls-3" d="M652.42,329.17v-48.15c.3,15.74.46,32.45,0,48.15Z"/>
            <path class="cls-4" d="M700.57,362.93c1.99.27,2.12.59,2.77,2.21v115.68c0,1.29,0,2.58,0,3.87v.55c0,1.47,0,2.95,0,4.43-1.61-.32-1.19.87-1.1,1.91.45,5.3.06,5.29-.59,9.96-1.04,7.41.54,17.64.05,25.51-.1,1.58-.73,3.08-.58,4.69-.79.06-1.56.04-2.34-.15-5.08-1.27-16.7-9.85-20.65-13.66-.67-.64-1.34-1.21-1.36-2.24,8.38-5.88,16.4-27.25,17.18-37.34,1.19-15.5-3.14-32.4-11.96-45.1-6.29-9.06-12.7-14.77-21.56-22.15-2.76-2.29-5.52-2.96-7.18-6.66l-.83,2.21-.55-40.96c.03-1.77,2.6-2.6,4.14-2.78,13.67-1.64,30.56,1.25,44.57.01Z"/>
            <path class="cls-15" d="M703.34,485.25v-.55c0,.18,0,.37,0,.55Z"/>
          </g>
        </g>
      </g>
    </g>
    <path class="cls-1" d="M486.8,498.52c-9.41,2.94-19.4,4.52-29.77,4.52-55.11,0-99.79-44.69-99.79-99.8s44.68-99.8,99.79-99.8c10.11,0,19.88,1.51,29.08,4.31l8.05-27.26c-8.88-4.63-29.38-11.59-61.85-11.59-80.81,0-136.09,55.28-136.09,136.85s55.28,131.83,128.73,131.83c31.7,0,56.45-6.18,68.83-12.36l-6.96-26.71s-.02.01-.03.01Z"/>
  </g>
  <g>
    <path class="cls-4" d="M582.95,579.18h12.45v3.67h-12.45v-3.67Z"/>
    <path class="cls-4" d="M610.71,571.08c6.05,0,9.3,4.52,9.3,10.11,0,.55-.13,1.71-.13,1.71h-15.73c.26,4.61,3.58,7.21,7.42,7.21s6.31-2.52,6.31-2.52l1.79,2.94s-3.2,3.16-8.31,3.16c-6.82,0-11.47-4.9-11.47-11.3,0-6.87,4.69-11.3,10.83-11.3ZM615.74,579.86c-.13-3.58-2.39-5.5-5.07-5.5-3.16,0-5.71,1.92-6.35,5.5h11.43Z"/>
    <path class="cls-4" d="M625.42,567.54c0-.64-.34-.94-.94-.94h-1.75v-3.54h4.09c1.92,0,2.73.81,2.73,2.73v22.9c0,.64.34.94.94.94h1.75v3.54h-4.09c-1.92,0-2.73-.81-2.73-2.73v-22.9Z"/>
    <path class="cls-4" d="M648.4,576.07c0-.64-.34-.94-.94-.94h-1.75v-3.54h3.88c1.92,0,2.64.81,2.64,2.17,0,.64-.04,1.15-.04,1.15h.09s1.79-3.84,7.16-3.84c5.8,0,9.51,4.6,9.51,11.3s-4.18,11.3-9.81,11.3c-4.78,0-6.61-3.45-6.61-3.45h-.09s.09.77.09,1.88v9.59h-4.14v-25.63ZM658.51,590.14c3.41,0,6.23-2.81,6.23-7.72s-2.52-7.72-6.1-7.72c-3.2,0-6.23,2.26-6.23,7.76,0,3.84,2.09,7.68,6.1,7.68Z"/>
    <path class="cls-4" d="M683.67,571.08c6.44,0,11.64,4.73,11.64,11.26s-5.2,11.34-11.64,11.34-11.6-4.78-11.6-11.34,5.16-11.26,11.6-11.26ZM683.67,590.1c4.09,0,7.42-3.24,7.42-7.76s-3.33-7.68-7.42-7.68-7.38,3.2-7.38,7.68,3.33,7.76,7.38,7.76Z"/>
    <path class="cls-4" d="M708.19,571.08c4.99,0,6.65,3.33,6.65,3.33h.09s-.09-.64-.09-1.45v-5.42c0-.64-.34-.94-.94-.94h-1.75v-3.54h4.09c1.92,0,2.73.81,2.73,2.73v22.9c0,.64.34.94.94.94h1.75v3.54h-3.96c-1.88,0-2.64-.85-2.64-2.3,0-.64.04-1.11.04-1.11h-.09s-1.79,3.92-7.08,3.92c-5.84,0-9.51-4.61-9.51-11.3s4.05-11.3,9.76-11.3ZM714.97,582.34c0-3.84-2-7.68-6.14-7.68-3.37,0-6.18,2.81-6.18,7.72s2.52,7.72,6.1,7.72c3.2,0,6.23-2.26,6.23-7.76Z"/>
    <path class="cls-4" d="M735.77,571.08c2.6,0,7.76,1.07,7.76,4.73v2.22h-3.75v-1.19c0-1.53-2.43-2.22-4.01-2.22-4.22,0-7.38,3.15-7.38,7.72,0,4.9,3.58,7.67,7.59,7.67s6.69-2.98,6.69-2.98l1.79,2.94s-3.07,3.71-8.78,3.71c-6.78,0-11.51-4.82-11.51-11.3s4.65-11.3,11.6-11.3Z"/>
    <path class="cls-4" d="M759.95,579.74h.94v-.21c0-3.79-1.41-5.16-4.78-5.16-1.02,0-3.54.26-3.54,1.66v1.24h-3.88v-2.13c0-3.54,5.37-4.05,7.46-4.05,6.99,0,8.87,3.67,8.87,8.44v9.17c0,.64.34.94.94.94h1.75v3.54h-3.88c-1.92,0-2.69-.94-2.69-2.47,0-.72.08-1.28.08-1.28h-.08s-1.71,4.26-6.87,4.26c-3.71,0-7.33-2.26-7.33-6.57,0-6.95,9.38-7.38,13-7.38ZM755.18,590.35c3.5,0,5.76-3.67,5.76-6.86v-.72h-1.07c-3.11,0-8.74.17-8.74,4.14,0,1.75,1.32,3.45,4.05,3.45Z"/>
    <path class="cls-4" d="M771.85,587.11s2.56,3.2,6.52,3.2c2,0,3.75-.9,3.75-2.77,0-3.88-11.77-3.45-11.77-10.4,0-4.14,3.62-6.05,8.02-6.05,2.6,0,7.08.9,7.08,4.18v2.05h-3.71v-1.07c0-1.28-1.92-1.83-3.24-1.83-2.43,0-4.01.85-4.01,2.56,0,4.09,11.77,3.2,11.77,10.4,0,3.84-3.41,6.31-7.93,6.31-5.76,0-8.61-3.8-8.61-3.8l2.13-2.77Z"/>
    <path class="cls-4" d="M791.72,574.92h-2.81v-3.33h2.9v-5.93h4.05v5.93h5.16v3.33h-5.16v9.89c0,4.31,2.98,4.86,4.56,4.86.6,0,.98-.09.98-.09v3.67s-.55.09-1.45.09c-2.73,0-8.23-.85-8.23-8.06v-10.36Z"/>
    <path class="cls-4" d="M805.28,579.18h12.45v3.67h-12.45v-3.67Z"/>
  </g>
</svg>